<?xml version="1.0" encoding="UTF-8" standalone="no" ?>
<!DOCTYPE svg PUBLIC "-//W3C//DTD SVG 1.1//EN" "http://www.w3.org/Graphics/SVG/1.1/DTD/svg11.dtd">
<svg xmlns="http://www.w3.org/2000/svg" xmlns:xlink="http://www.w3.org/1999/xlink" version="1.1" width="922.8425887265137" height="922.8425887265137" viewBox="0 -18.456851774530264 922.8425887265137 922.8425887265137" xml:space="preserve">
<desc>Created with Fabric.js 2.4.6</desc>
<defs>
</defs>
<g transform="matrix(153.81 0 0 153.81 461.42 442.96)" style="" id="0"  >
	<g transform="matrix(1 0 0 1 0 0)"  >
<rect style="stroke: none; stroke-width: 1; stroke-dasharray: none; stroke-linecap: butt; stroke-dashoffset: 0; stroke-linejoin: miter; stroke-miterlimit: 4; fill: rgb(0,0,0); fill-rule: nonzero; opacity: 1;"  x="-3" y="-3" rx="0" ry="0" width="6" height="6" />
</g>
	<g transform="matrix(1 0 0 1 -1.5 -1.5)"  >
<rect style="stroke: none; stroke-width: 1; stroke-dasharray: none; stroke-linecap: butt; stroke-dashoffset: 0; stroke-linejoin: miter; stroke-miterlimit: 4; fill: rgb(255,255,255); fill-rule: nonzero; opacity: 1;"  x="-0.5" y="-0.5" rx="0" ry="0" width="1" height="1" />
</g>
	<g transform="matrix(1 0 0 1 -0.5 -1.5)"  >
<rect style="stroke: none; stroke-width: 1; stroke-dasharray: none; stroke-linecap: butt; stroke-dashoffset: 0; stroke-linejoin: miter; stroke-miterlimit: 4; fill: rgb(0,0,0); fill-rule: nonzero; opacity: 1;"  x="-0.5" y="-0.5" rx="0" ry="0" width="1" height="1" />
</g>
	<g transform="matrix(1 0 0 1 0.5 -1.5)"  >
<rect style="stroke: none; stroke-width: 1; stroke-dasharray: none; stroke-linecap: butt; stroke-dashoffset: 0; stroke-linejoin: miter; stroke-miterlimit: 4; fill: rgb(255,255,255); fill-rule: nonzero; opacity: 1;"  x="-0.5" y="-0.5" rx="0" ry="0" width="1" height="1" />
</g>
	<g transform="matrix(1 0 0 1 1.5 -1.5)"  >
<rect style="stroke: none; stroke-width: 1; stroke-dasharray: none; stroke-linecap: butt; stroke-dashoffset: 0; stroke-linejoin: miter; stroke-miterlimit: 4; fill: rgb(255,255,255); fill-rule: nonzero; opacity: 1;"  x="-0.5" y="-0.5" rx="0" ry="0" width="1" height="1" />
</g>
	<g transform="matrix(1 0 0 1 -1.5 -0.5)"  >
<rect style="stroke: none; stroke-width: 1; stroke-dasharray: none; stroke-linecap: butt; stroke-dashoffset: 0; stroke-linejoin: miter; stroke-miterlimit: 4; fill: rgb(0,0,0); fill-rule: nonzero; opacity: 1;"  x="-0.5" y="-0.5" rx="0" ry="0" width="1" height="1" />
</g>
	<g transform="matrix(1 0 0 1 -0.5 -0.5)"  >
<rect style="stroke: none; stroke-width: 1; stroke-dasharray: none; stroke-linecap: butt; stroke-dashoffset: 0; stroke-linejoin: miter; stroke-miterlimit: 4; fill: rgb(255,255,255); fill-rule: nonzero; opacity: 1;"  x="-0.5" y="-0.5" rx="0" ry="0" width="1" height="1" />
</g>
	<g transform="matrix(1 0 0 1 0.5 -0.5)"  >
<rect style="stroke: none; stroke-width: 1; stroke-dasharray: none; stroke-linecap: butt; stroke-dashoffset: 0; stroke-linejoin: miter; stroke-miterlimit: 4; fill: rgb(0,0,0); fill-rule: nonzero; opacity: 1;"  x="-0.5" y="-0.5" rx="0" ry="0" width="1" height="1" />
</g>
	<g transform="matrix(1 0 0 1 1.5 -0.5)"  >
<rect style="stroke: none; stroke-width: 1; stroke-dasharray: none; stroke-linecap: butt; stroke-dashoffset: 0; stroke-linejoin: miter; stroke-miterlimit: 4; fill: rgb(255,255,255); fill-rule: nonzero; opacity: 1;"  x="-0.5" y="-0.5" rx="0" ry="0" width="1" height="1" />
</g>
	<g transform="matrix(1 0 0 1 -1.5 0.5)"  >
<rect style="stroke: none; stroke-width: 1; stroke-dasharray: none; stroke-linecap: butt; stroke-dashoffset: 0; stroke-linejoin: miter; stroke-miterlimit: 4; fill: rgb(0,0,0); fill-rule: nonzero; opacity: 1;"  x="-0.5" y="-0.5" rx="0" ry="0" width="1" height="1" />
</g>
	<g transform="matrix(1 0 0 1 -0.5 0.5)"  >
<rect style="stroke: none; stroke-width: 1; stroke-dasharray: none; stroke-linecap: butt; stroke-dashoffset: 0; stroke-linejoin: miter; stroke-miterlimit: 4; fill: rgb(0,0,0); fill-rule: nonzero; opacity: 1;"  x="-0.5" y="-0.5" rx="0" ry="0" width="1" height="1" />
</g>
	<g transform="matrix(1 0 0 1 0.5 0.5)"  >
<rect style="stroke: none; stroke-width: 1; stroke-dasharray: none; stroke-linecap: butt; stroke-dashoffset: 0; stroke-linejoin: miter; stroke-miterlimit: 4; fill: rgb(255,255,255); fill-rule: nonzero; opacity: 1;"  x="-0.5" y="-0.5" rx="0" ry="0" width="1" height="1" />
</g>
	<g transform="matrix(1 0 0 1 1.5 0.5)"  >
<rect style="stroke: none; stroke-width: 1; stroke-dasharray: none; stroke-linecap: butt; stroke-dashoffset: 0; stroke-linejoin: miter; stroke-miterlimit: 4; fill: rgb(255,255,255); fill-rule: nonzero; opacity: 1;"  x="-0.5" y="-0.5" rx="0" ry="0" width="1" height="1" />
</g>
	<g transform="matrix(1 0 0 1 -1.5 1.5)"  >
<rect style="stroke: none; stroke-width: 1; stroke-dasharray: none; stroke-linecap: butt; stroke-dashoffset: 0; stroke-linejoin: miter; stroke-miterlimit: 4; fill: rgb(0,0,0); fill-rule: nonzero; opacity: 1;"  x="-0.5" y="-0.5" rx="0" ry="0" width="1" height="1" />
</g>
	<g transform="matrix(1 0 0 1 -0.5 1.5)"  >
<rect style="stroke: none; stroke-width: 1; stroke-dasharray: none; stroke-linecap: butt; stroke-dashoffset: 0; stroke-linejoin: miter; stroke-miterlimit: 4; fill: rgb(0,0,0); fill-rule: nonzero; opacity: 1;"  x="-0.5" y="-0.5" rx="0" ry="0" width="1" height="1" />
</g>
	<g transform="matrix(1 0 0 1 0.5 1.5)"  >
<rect style="stroke: none; stroke-width: 1; stroke-dasharray: none; stroke-linecap: butt; stroke-dashoffset: 0; stroke-linejoin: miter; stroke-miterlimit: 4; fill: rgb(255,255,255); fill-rule: nonzero; opacity: 1;"  x="-0.5" y="-0.5" rx="0" ry="0" width="1" height="1" />
</g>
	<g transform="matrix(1 0 0 1 1.5 1.5)"  >
<rect style="stroke: none; stroke-width: 1; stroke-dasharray: none; stroke-linecap: butt; stroke-dashoffset: 0; stroke-linejoin: miter; stroke-miterlimit: 4; fill: rgb(0,0,0); fill-rule: nonzero; opacity: 1;"  x="-0.5" y="-0.5" rx="0" ry="0" width="1" height="1" />
</g>
</g>
</svg>